<?xml version="1.0" encoding="UTF-8" standalone="no"?>
<svg width="896px" height="300px" viewBox="0 0 896 300" version="1.1" xmlns="http://www.w3.org/2000/svg" xmlns:xlink="http://www.w3.org/1999/xlink" xmlns:sketch="http://www.bohemiancoding.com/sketch/ns">
    <!-- Generator: Sketch 3.3.1 (12002) - http://www.bohemiancoding.com/sketch -->
    <title>mockup</title>
    <desc>Created with Sketch.</desc>
    <defs></defs>
    <g id="Page-1" stroke="none" stroke-width="1" fill="none" fill-rule="evenodd" sketch:type="MSPage">
        <g id="logoSVG-+-acme" sketch:type="MSLayerGroup" transform="translate(-29.000000, 0.000000)">
            <g id="logoSVG" sketch:type="MSShapeGroup">
                <g id="Page-1">
                    <g id="acme">
                        <path d="M224.510659,82.6646215 L171.520597,51.9875385 L206.853588,52.0816782 L224.510659,82.6646215 L224.510659,82.6646215 Z M245.467669,180.614641 L245.539771,119.385359 L263.124739,150.031697 L245.467669,180.614641 L245.467669,180.614641 Z M171.520597,247.776212 L224.582761,217.224014 L206.834738,247.776212 L171.520597,247.776212 L171.520597,247.776212 Z M93.5012173,247.744516 L75.8441473,217.161572 L128.834209,247.838655 L93.5012173,247.744516 L93.5012173,247.744516 Z M36.6758806,149.968303 L54.332951,119.385359 L54.2608488,180.614641 L36.6758806,149.968303 L36.6758806,149.968303 Z M93.5200675,52.0499809 L128.834209,52.0499809 L75.7720447,82.6021789 L93.5200675,52.0499809 L93.5200675,52.0499809 Z" id="Triangle-1-Copy-6" fill="#2E2E2E" transform="translate(149.900310, 149.913097) rotate(-38.000000) translate(-149.900310, -149.913097) "></path>
                        <path d="M225.243001,141.941027 L241.815195,90.0643224 L150,36.8852459 C150,36.8852459 169.694433,52.5119381 189.89464,80.7158706 C210.094846,108.919802 225.243001,141.941027 225.243001,141.941027 L225.243001,141.941027 Z M194.374729,211.571551 L247.58737,199.98514 L247.734204,93.88131 C247.734204,93.88131 244.048308,118.750535 229.72309,150.346394 C215.397871,181.942252 194.374729,211.571551 194.374729,211.571551 L194.374729,211.571551 Z M119.548486,218.9486 L156.188932,259.238893 L248.150961,206.314141 C248.150961,206.314141 224.770632,215.556674 190.245207,218.9486 C155.719782,222.340526 119.548486,218.9486 119.548486,218.9486 L119.548486,218.9486 Z M74.7569994,158.058973 L58.1848048,209.935678 L150,263.114754 C150,263.114754 130.305567,247.488062 110.10536,219.284129 C89.9051538,191.080198 74.7569994,158.058973 74.7569994,158.058973 L74.7569994,158.058973 Z M105.503227,89.0400714 L52.2905856,100.626482 L52.1437518,206.730312 C52.1437518,206.730312 55.8296478,181.861087 70.1548662,150.265228 C84.4800846,118.66937 105.503227,89.0400714 105.503227,89.0400714 L105.503227,89.0400714 Z M180.737705,80.7889536 L144.097258,40.4986595 L52.1352294,93.4234128 C52.1352294,93.4234128 75.5155584,84.1808796 110.040983,80.7889536 C144.566409,77.3970276 180.737705,80.7889536 180.737705,80.7889536 L180.737705,80.7889536 Z" id="section-copy-7" fill="#F3B40C" transform="translate(150.143095, 150.000000) rotate(-38.000000) translate(-150.143095, -150.000000) "></path>
                        <path d="M159.452007,157.906945 L147.192328,157.906945 C142.464854,157.906945 139.513123,160.565632 139.513123,164.259559 C139.513123,167.803494 142.172327,170.906275 147.489265,170.906275 C152.216738,170.906275 154.429066,170.463651 157.0868,167.950545 C158.861073,166.327099 159.452007,163.813994 159.452007,159.974486 L159.452007,157.906945 L159.452007,157.906945 Z M160.044411,189.818536 L160.044411,183.318871 C155.168469,188.193619 150.739403,190.556732 142.320796,190.556732 C134.344654,190.556732 127.69444,187.899517 123.266843,183.465922 C118.689308,178.886746 116.324101,172.23856 116.324101,164.849234 C116.324101,152.880734 124.448711,141.800423 143.354195,141.800423 L159.452007,141.800423 L159.452007,139.729941 C159.452007,132.492079 155.907872,129.831922 147.489265,129.831922 C141.287396,129.831922 138.628192,131.311258 134.787119,135.150766 L119.722708,120.078013 C127.844378,111.953432 135.229585,109.443268 148.668193,109.443268 C171.414749,109.443268 183.675899,118.898662 183.675899,138.253547 L183.675899,189.818536 L160.044411,189.818536 L160.044411,189.818536 Z" id="Fill-43-Copy" fill="#2E2E2E"></path>
                    </g>
                </g>
            </g>
            <g id="acme" transform="translate(329.000000, 80.000000)" fill="#2E2E2E" sketch:type="MSShapeGroup">
                <path d="M73.4064253,83.1761981 L52.5397093,83.1761981 C44.4947104,83.1761981 39.466586,87.7031321 39.466586,93.9905403 C39.466586,100.026452 43.9918979,105.303684 53.0425217,105.303684 C61.0875207,105.303684 64.858614,104.553386 69.3839259,100.273757 C72.4008005,97.5114889 73.4064253,93.2360513 73.4064253,86.6971468 L73.4064253,83.1761981 L73.4064253,83.1761981 Z M74.4120502,137.495214 L74.4120502,126.429375 C66.115645,134.728754 58.5734585,138.752695 44.2433041,138.752695 C30.6673684,138.752695 19.3540886,134.229953 11.8160922,126.680871 C4.02249948,118.888677 0,107.56715 0,94.992334 C0,74.6211313 13.8231518,55.7630983 46.0031477,55.7630983 L73.4064253,55.7630983 L73.4064253,52.2379581 C73.4064253,39.9188295 67.3726761,35.3918956 53.0425217,35.3918956 C42.4834606,35.3918956 37.9581487,37.9068589 31.4215871,44.4457635 L5.782343,18.7973295 C19.6054948,4.96083979 32.1758057,0.685402192 55.0537715,0.685402192 C93.7703289,0.685402192 114.637045,16.7811673 114.637045,49.7271864 L114.637045,137.495214 L74.4120502,137.495214 L74.4120502,137.495214 Z" id="Fill-27"></path>
                <path d="M194.016538,139 C170.63576,139 133.176233,128.944338 133.176233,69.8468927 C133.176233,10.749447 170.63576,0.685402192 194.016538,0.685402192 C212.872004,0.685402192 227.449375,6.97281042 238.511248,18.0386489 L210.609348,45.9547414 C205.325627,40.6691269 200.804506,37.9068589 194.016538,37.9068589 C188.485601,37.9068589 184.714508,39.6673332 181.194821,43.1882818 C176.418103,48.2182084 174.406853,57.0205799 174.406853,69.8468927 C174.406853,82.6690139 176.418103,91.475577 181.194821,96.5055036 C184.714508,100.026452 188.485601,101.786927 194.016538,101.786927 C200.804506,101.786927 205.325627,99.0162753 210.609348,93.739044 L238.511248,121.655137 C227.449375,132.712592 212.872004,139 194.016538,139" id="Fill-28"></path>
                <path d="M401.158016,137.495214 L401.158016,56.5175873 C401.158016,40.9248149 390.096142,37.9068589 384.569396,37.9068589 C379.034269,37.9068589 367.976585,40.9248149 367.976585,56.5175873 L367.976585,137.495214 L326.745966,137.495214 L326.745966,56.5175873 C326.745966,40.9248149 315.684092,37.9068589 310.153155,37.9068589 C304.622219,37.9068589 293.560345,40.9248149 293.560345,56.5175873 L293.560345,137.495214 L252.333915,137.495214 L252.333915,2.19438017 L292.55472,2.19438017 L292.55472,13.2602186 C300.851125,4.96083979 313.17003,0.685402192 323.980497,0.685402192 C337.305027,0.685402192 348.115494,4.96083979 356.914712,15.020693 C368.726614,4.70934346 379.537081,0.685402192 395.124267,0.685402192 C407.945984,0.685402192 420.264888,4.96083979 427.555669,12.2542333 C439.120355,23.8230645 442.388636,36.6535689 442.388636,50.984668 L442.388636,137.495214 L401.158016,137.495214" id="Fill-29"></path>
                <path d="M539.298599,45.2002524 C536.780347,39.4200285 531.2536,34.6374066 521.448758,34.6374066 C511.643915,34.6374066 506.112979,39.4200285 503.603107,45.2002524 C501.843263,48.7170094 501.336261,52.493646 501.336261,55.7630983 L541.557065,55.7630983 C541.557065,52.493646 541.058443,48.7170094 539.298599,45.2002524 L539.298599,45.2002524 Z M501.336261,83.1761981 C501.336261,94.2420366 509.888262,104.297698 525.219851,104.297698 C539.550006,104.297698 545.835161,100.273757 553.121751,92.984555 L577.763751,117.627004 C563.932219,131.463493 550.360473,139 525.219851,139 C495.302511,139 460.85986,128.189849 460.85986,69.8468927 C460.85986,25.5835388 486.000481,0.685402192 521.448758,0.685402192 C560.668128,0.685402192 582.289063,29.3559837 582.289063,64.8127745 L582.289063,83.1761981 L501.336261,83.1761981 L501.336261,83.1761981 Z" id="Fill-30"></path>
            </g>
        </g>
    </g>
</svg>
